<svg xmlns="http://www.w3.org/2000/svg" width="189" height="189"><path fill="#fff" fill-rule="evenodd" d="M169.16 53.85a84.54 84.54 0 0 1 10.41 40.76 84.92 84.92 0 0 1-42.25 73.44l25.95-75.03c4.85-12.13 6.46-21.82 6.46-30.44 0-3.12-.2-6.03-.57-8.73Zm-62.84.92a173.12 173.12 0 0 0 9.72-.8c4.58-.55 4.04-7.28-.54-7 0 0-13.76 1.07-22.65 1.07-8.34 0-22.37-1.08-22.37-1.08-4.58-.27-5.12 6.73-.54 7 0 0 4.33.54 8.91.81L92.1 91.04 73.5 146.8 42.56 54.77c5.12-.27 9.73-.8 9.73-.8 4.57-.55 4.03-7.28-.55-7 0 0-13.76 1.07-22.64 1.07-1.6 0-3.47-.04-5.47-.1a84.87 84.87 0 0 1 70.99-38.3 84.64 84.64 0 0 1 57.37 22.31c-.36-.02-.72-.07-1.1-.07-8.34 0-14.26 7.27-14.26 15.08 0 7 4.04 12.93 8.34 19.93 3.23 5.66 7 12.93 7 23.43 0 7.27-2.8 15.71-6.46 27.47l-8.48 28.31-30.7-91.33ZM94.6 179.57a84.93 84.93 0 0 1-24-3.46l25.5-74.07 26.1 71.55c.18.42.39.8.61 1.17a84.78 84.78 0 0 1-28.21 4.82ZM9.65 94.62A84.62 84.62 0 0 1 17 60.03l40.53 111.04A84.97 84.97 0 0 1 9.65 94.61ZM94.6.1C42.51.11.11 42.5.11 94.61c0 52.1 42.4 94.5 94.5 94.5s94.5-42.4 94.5-94.5c0-52.11-42.4-94.5-94.5-94.5Z"/></svg>